<svg width="132" height="40" viewBox="0 0 132 40" fill="none" xmlns="http://www.w3.org/2000/svg">
<rect opacity="0.8" width="132" height="40" rx="20" fill="#1D1C1F"/>
<path d="M55.6172 25H53.3594V16.2969L50.6641 17.1328V15.2969L55.375 13.6094H55.6172V25ZM63.6016 25.9766H62.75L67.5 13.625H68.3438L63.6016 25.9766ZM74.4688 19.1719L75.0234 13.625H80.7109V14.4922H75.8281L75.4297 18.3359C76.0391 17.9193 76.7526 17.7109 77.5703 17.7109C78.5964 17.7109 79.4141 18.0443 80.0234 18.7109C80.6328 19.3776 80.9375 20.2656 80.9375 21.375C80.9375 22.5729 80.6406 23.5026 80.0469 24.1641C79.4531 24.8255 78.6172 25.1562 77.5391 25.1562C76.5495 25.1562 75.7474 24.8802 75.1328 24.3281C74.5182 23.776 74.1667 23.0026 74.0781 22.0078H74.9766C75.0651 22.7839 75.3281 23.3724 75.7656 23.7734C76.2031 24.1693 76.7943 24.3672 77.5391 24.3672C78.3516 24.3672 78.9635 24.1094 79.375 23.5938C79.7917 23.0781 80 22.3438 80 21.3906C80 20.5573 79.7682 19.8776 79.3047 19.3516C78.8411 18.8255 78.2083 18.5625 77.4062 18.5625C76.9635 18.5625 76.5781 18.6198 76.25 18.7344C75.9219 18.8438 75.5755 19.0599 75.2109 19.3828L74.4688 19.1719Z" fill="white"/>
<path d="M29 13.1546L27.7838 12C27.4595 12.4124 20 20 20 20C20 20 27.2162 27.3402 27.7838 28L28.9189 26.8454L22.2703 20L29 13.1546Z" fill="white"/>
<path d="M102 26.8454L103.216 28C103.541 27.5876 111 20 111 20C111 20 103.784 12.6598 103.216 12L102.081 13.1546L108.73 20L102 26.8454Z" fill="white"/>
</svg>
